HIERARCHY
ROOT Hips
{
  OFFSET 0 0 0
  CHANNELS 6 Xposition Yposition Zposition Zrotation Yrotation Xrotation
  JOINT LeftThigh
  {
    OFFSET 8.409438 0 -5.917753
    CHANNELS 3 Zrotation Yrotation Xrotation
    JOINT LeftLeg
    {
      OFFSET 0 0 -42.358652
      CHANNELS 3 Zrotation Yrotation Xrotation
      JOINT LeftFoot
      {
        OFFSET 0 0 -39.357303
        CHANNELS 3 Zrotation Yrotation Xrotation
      }
    }
  }
  JOINT RightThigh
  {
    OFFSET -8.409438 0 -5.917753
    CHANNELS 3 Zrotation Yrotation Xrotation
    JOINT RightLeg
    {
      OFFSET 0 0 -42.358652
      CHANNELS 3 Zrotation Yrotation Xrotation
      JOINT RightFoot
      {
        OFFSET 0 0 -39.357303
        CHANNELS 3 Zrotation Yrotation Xrotation
      }
    }
  }
  JOINT SpineLow
  {
    OFFSET 0 0 4.719101
    CHANNELS 3 Zrotation Yrotation Xrotation
    JOINT SpineMid
    {
      OFFSET 0 0 12.899191
      CHANNELS 3 Zrotation Yrotation Xrotation
      JOINT Chest
      {
        OFFSET 0 0 12.899191
        CHANNELS 3 Zrotation Yrotation Xrotation
        JOINT LeftShoulder
        {
          OFFSET 7.550562 1.41573 9.438202
          CHANNELS 3 Zrotation Yrotation Xrotation
          JOINT LeftArm
          {
            OFFSET 9.155056 0 4.247191
            CHANNELS 3 Zrotation Yrotation Xrotation
            JOINT LeftForearm
            {
              OFFSET 0 0 25.771955
              CHANNELS 3 Zrotation Yrotation Xrotation
              JOINT LeftHand
              {
                OFFSET 0 0 25.197169
                CHANNELS 3 Zrotation Yrotation Xrotation
              }
            }
          }
        }
        JOINT RightShoulder
        {
          OFFSET -7.550562 1.41573 9.438202
          CHANNELS 3 Zrotation Yrotation Xrotation
          JOINT RightArm
          {
            OFFSET -9.155056 0 4.247191
            CHANNELS 3 Zrotation Yrotation Xrotation
            JOINT RightForearm
            {
              OFFSET 0 0 -25.771955
              CHANNELS 3 Zrotation Yrotation Xrotation
              JOINT RightHand
              {
                OFFSET 0 0 -25.197169
                CHANNELS 3 Zrotation Yrotation Xrotation
              }
            }
          }
        }
        JOINT Neck
        {
          OFFSET 0 0 15.101124
          CHANNELS 3 Zrotation Yrotation Xrotation
          JOINT Head
          {
            OFFSET 0 0 11.325843
            CHANNELS 3 Zrotation Yrotation Xrotation
            End Site
            {
              OFFSET 0 0 14.157303
            }
          }
        }
      }
    }
  }
}
MOTION
Frames: 5
Frame Time: 0.0
0.0  89.887642  0.0  8.457717  -28.501857  -106.253064  10.857095  -5.054871  16.202274  13.077861  -0.602545  19.679033  6.871582  2.213835  2.773099  -7.730557  16.901746  -7.09235  2.599309  4.434466  19.925916  4.207544  0.102387  -1.471475  7.466801  -0.143764  0.990518  20.400576  -0.692334  2.633917  20.400574  -0.692334  2.633916  5.836097  7.408078  5.559938  170.270801  18.032425  -176.355184  -21.797203  34.168159  102.88724  67.575124  -12.485151  28.371153  2.722459  -2.937192  11.933712  8.566653  46.296799  -64.232773  12.61463  -39.587455  -104.917242  66.174835  -13.913461  1.90516  -15.99181  3.180061  5.693402  -12.021635  2.238097  4.355804  
0.0  89.887642  0.0  8.653464  -32.031553  -107.577955  11.918832  -4.285751  17.544949  14.87582  -1.948958  19.43348  7.18451  2.314234  2.929512  -7.636951  16.382801  -6.266417  3.743757  4.196034  18.666684  4.874479  -0.094679  -1.481026  7.863344  0.163252  0.718395  21.496403  0.20896  1.992588  21.496404  0.20896  1.992588  2.167094  5.089009  8.929923  172.999017  16.448726  179.386789  -22.333055  35.904917  103.19343  68.291149  -15.568099  24.826552  0.235789  -4.881162  10.630405  2.166729  49.072468  -71.18721  0.418196  -32.495866  -98.927841  67.789863  -13.25829  2.848111  -16.090758  0.561288  6.853332  -12.076073  0.240676  5.158988  
0.0  89.887642  0.0  9.076807  -34.795374  -108.819516  14.382169  -4.881825  18.441887  14.730725  -2.057399  19.641277  7.451234  2.297991  3.078199  -7.376133  16.134462  -5.480582  5.059067  3.799741  17.635746  5.165213  -0.292011  -1.489427  7.901115  0.330029  0.733141  21.60531  0.65327  2.086559  21.605309  0.65327  2.086559  3.775023  2.001976  11.350105  170.964349  12.226852  177.030126  -25.312921  36.409533  100.96881  69.355436  -17.971142  21.840967  0.279491  -4.808132  7.384696  -5.833767  50.916141  -77.308905  -9.032976  -25.858574  -95.003125  70.00656  -12.477966  3.875196  -15.640422  -1.267599  6.888761  -11.71734  -1.128108  5.137908  
0.0  89.887642  0.0  9.626284  -36.513104  -109.726042  17.764889  -6.656554  18.918235  12.921229  -1.24204  20.046358  7.456527  2.296746  3.211473  -6.814018  15.999212  -4.8297  5.540508  3.580873  16.914961  5.271717  -0.229054  -1.599436  7.553182  0.308067  0.921706  20.654621  0.546659  2.58686  20.654621  0.546659  2.58686  6.721466  3.022145  13.890932  169.734812  11.071111  176.797089  -28.125249  39.23682  96.441762  73.790705  -21.118451  18.316436  2.320046  -1.54989  3.42287  -15.086054  51.216148  -83.370324  -16.090312  -20.547221  -91.741666  72.653999  -11.678856  5.502629  -14.341473  -1.779933  6.101274  -10.738757  -1.479299  4.536768  
0.0  89.887642  0.0  9.878246  -37.344077  -110.33908  20.570637  -8.462881  19.056113  10.323479  -0.89488  20.127317  7.742832  2.749207  3.834839  -5.86389  15.529138  -4.022014  4.478206  3.879394  16.464285  5.933365  0.233562  -1.746785  7.918625  0.56172  1.302737  21.669719  1.092752  3.700068  21.669719  1.092752  3.700067  3.115674  4.083848  13.25036  169.364847  12.979643  175.654896  -29.859475  44.909708  92.771447  74.281281  -23.866556  15.42212  -1.226103  0.760945  -1.29909  -25.33577  50.947769  -90.4549  -21.721369  -16.186669  -88.221678  74.023912  -11.188387  6.867215  -15.872717  -3.100191  4.471342  -11.879712  -2.443386  3.274698  
